<mxfile host="app.diagrams.net" agent="Mozilla/5.0 (Macintosh; Intel Mac OS X 10_15_7) AppleWebKit/537.36 (KHTML, like Gecko) Chrome/131.0.0.0 Safari/537.36" version="26.0.4">
  <diagram id="R2lEEEUBdFMjLlhIrx00" name="Page-1">
    <mxGraphModel dx="1493" dy="799" grid="1" gridSize="10" guides="1" tooltips="1" connect="1" arrows="1" fold="1" page="1" pageScale="1" pageWidth="850" pageHeight="1100" math="0" shadow="0" extFonts="Permanent Marker^https://fonts.googleapis.com/css?family=Permanent+Marker">
      <root>
        <mxCell id="0" />
        <mxCell id="1" parent="0" />
        <mxCell id="8PF1Qtc3a-aRWtdLOd60-5" style="edgeStyle=orthogonalEdgeStyle;rounded=0;orthogonalLoop=1;jettySize=auto;html=1;exitX=1;exitY=0.25;exitDx=0;exitDy=0;entryX=0;entryY=0.5;entryDx=0;entryDy=0;" edge="1" parent="1" source="8PF1Qtc3a-aRWtdLOd60-1" target="8PF1Qtc3a-aRWtdLOd60-4">
          <mxGeometry relative="1" as="geometry" />
        </mxCell>
        <mxCell id="8PF1Qtc3a-aRWtdLOd60-6" style="edgeStyle=orthogonalEdgeStyle;rounded=0;orthogonalLoop=1;jettySize=auto;html=1;exitX=1;exitY=0.5;exitDx=0;exitDy=0;entryX=0;entryY=0.5;entryDx=0;entryDy=0;" edge="1" parent="1" source="8PF1Qtc3a-aRWtdLOd60-1" target="8PF1Qtc3a-aRWtdLOd60-2">
          <mxGeometry relative="1" as="geometry" />
        </mxCell>
        <mxCell id="8PF1Qtc3a-aRWtdLOd60-7" style="edgeStyle=orthogonalEdgeStyle;rounded=0;orthogonalLoop=1;jettySize=auto;html=1;exitX=1;exitY=0.75;exitDx=0;exitDy=0;" edge="1" parent="1" source="8PF1Qtc3a-aRWtdLOd60-1" target="8PF1Qtc3a-aRWtdLOd60-3">
          <mxGeometry relative="1" as="geometry">
            <Array as="points">
              <mxPoint x="942.5" y="140" />
              <mxPoint x="942.5" y="210" />
              <mxPoint x="1037.5" y="210" />
            </Array>
          </mxGeometry>
        </mxCell>
        <mxCell id="8PF1Qtc3a-aRWtdLOd60-25" style="edgeStyle=orthogonalEdgeStyle;rounded=0;orthogonalLoop=1;jettySize=auto;html=1;entryX=1;entryY=0.5;entryDx=0;entryDy=0;" edge="1" parent="1" source="8PF1Qtc3a-aRWtdLOd60-1" target="8PF1Qtc3a-aRWtdLOd60-8">
          <mxGeometry relative="1" as="geometry" />
        </mxCell>
        <mxCell id="8PF1Qtc3a-aRWtdLOd60-1" value="USER" style="rounded=0;whiteSpace=wrap;html=1;" vertex="1" parent="1">
          <mxGeometry x="782.5" y="110" width="110" height="40" as="geometry" />
        </mxCell>
        <mxCell id="8PF1Qtc3a-aRWtdLOd60-2" value="USERNAME" style="ellipse;whiteSpace=wrap;html=1;" vertex="1" parent="1">
          <mxGeometry x="987.5" y="105" width="120" height="50" as="geometry" />
        </mxCell>
        <mxCell id="8PF1Qtc3a-aRWtdLOd60-3" value="EMAIL" style="ellipse;whiteSpace=wrap;html=1;" vertex="1" parent="1">
          <mxGeometry x="997.5" y="180" width="110" height="50" as="geometry" />
        </mxCell>
        <mxCell id="8PF1Qtc3a-aRWtdLOd60-4" value="USERID" style="ellipse;whiteSpace=wrap;html=1;fontStyle=4" vertex="1" parent="1">
          <mxGeometry x="987.5" y="30" width="110" height="50" as="geometry" />
        </mxCell>
        <mxCell id="8PF1Qtc3a-aRWtdLOd60-21" style="edgeStyle=orthogonalEdgeStyle;rounded=0;orthogonalLoop=1;jettySize=auto;html=1;entryX=1;entryY=0.5;entryDx=0;entryDy=0;" edge="1" parent="1" source="8PF1Qtc3a-aRWtdLOd60-8" target="8PF1Qtc3a-aRWtdLOd60-12">
          <mxGeometry relative="1" as="geometry">
            <Array as="points">
              <mxPoint x="140" y="130" />
            </Array>
          </mxGeometry>
        </mxCell>
        <mxCell id="8PF1Qtc3a-aRWtdLOd60-22" style="edgeStyle=orthogonalEdgeStyle;rounded=0;orthogonalLoop=1;jettySize=auto;html=1;entryX=1;entryY=0.5;entryDx=0;entryDy=0;" edge="1" parent="1" source="8PF1Qtc3a-aRWtdLOd60-8" target="8PF1Qtc3a-aRWtdLOd60-14">
          <mxGeometry relative="1" as="geometry" />
        </mxCell>
        <mxCell id="8PF1Qtc3a-aRWtdLOd60-23" style="edgeStyle=orthogonalEdgeStyle;rounded=0;orthogonalLoop=1;jettySize=auto;html=1;entryX=1;entryY=0.5;entryDx=0;entryDy=0;" edge="1" parent="1" source="8PF1Qtc3a-aRWtdLOd60-8" target="8PF1Qtc3a-aRWtdLOd60-11">
          <mxGeometry relative="1" as="geometry">
            <Array as="points">
              <mxPoint x="185" y="130" />
              <mxPoint x="185" y="195" />
            </Array>
          </mxGeometry>
        </mxCell>
        <mxCell id="8PF1Qtc3a-aRWtdLOd60-55" style="edgeStyle=orthogonalEdgeStyle;rounded=0;orthogonalLoop=1;jettySize=auto;html=1;entryX=0.5;entryY=0;entryDx=0;entryDy=0;" edge="1" parent="1" source="8PF1Qtc3a-aRWtdLOd60-8" target="8PF1Qtc3a-aRWtdLOd60-38">
          <mxGeometry relative="1" as="geometry">
            <Array as="points">
              <mxPoint x="285" y="180" />
              <mxPoint x="565" y="180" />
            </Array>
          </mxGeometry>
        </mxCell>
        <mxCell id="8PF1Qtc3a-aRWtdLOd60-8" value="POST" style="rounded=0;whiteSpace=wrap;html=1;" vertex="1" parent="1">
          <mxGeometry x="225" y="110" width="120" height="40" as="geometry" />
        </mxCell>
        <mxCell id="8PF1Qtc3a-aRWtdLOd60-10" value="CONTENT" style="ellipse;whiteSpace=wrap;html=1;" vertex="1" parent="1">
          <mxGeometry x="185" y="190" width="110" height="50" as="geometry" />
        </mxCell>
        <mxCell id="8PF1Qtc3a-aRWtdLOd60-11" value="TITLE" style="ellipse;whiteSpace=wrap;html=1;" vertex="1" parent="1">
          <mxGeometry x="45" y="170" width="120" height="50" as="geometry" />
        </mxCell>
        <mxCell id="8PF1Qtc3a-aRWtdLOd60-12" value="&lt;u&gt;POSTID&lt;/u&gt;" style="ellipse;whiteSpace=wrap;html=1;" vertex="1" parent="1">
          <mxGeometry x="30" y="110" width="110" height="50" as="geometry" />
        </mxCell>
        <mxCell id="8PF1Qtc3a-aRWtdLOd60-13" value="CREATED AT" style="ellipse;whiteSpace=wrap;html=1;" vertex="1" parent="1">
          <mxGeometry x="155" y="20" width="120" height="50" as="geometry" />
        </mxCell>
        <mxCell id="8PF1Qtc3a-aRWtdLOd60-14" value="AUTHORID" style="ellipse;whiteSpace=wrap;html=1;" vertex="1" parent="1">
          <mxGeometry x="30" y="50" width="120" height="50" as="geometry" />
        </mxCell>
        <mxCell id="8PF1Qtc3a-aRWtdLOd60-15" style="edgeStyle=orthogonalEdgeStyle;rounded=0;orthogonalLoop=1;jettySize=auto;html=1;entryX=0.592;entryY=1.04;entryDx=0;entryDy=0;entryPerimeter=0;" edge="1" parent="1" source="8PF1Qtc3a-aRWtdLOd60-8" target="8PF1Qtc3a-aRWtdLOd60-13">
          <mxGeometry relative="1" as="geometry" />
        </mxCell>
        <mxCell id="8PF1Qtc3a-aRWtdLOd60-19" style="edgeStyle=orthogonalEdgeStyle;rounded=0;orthogonalLoop=1;jettySize=auto;html=1;entryX=0.364;entryY=0;entryDx=0;entryDy=0;entryPerimeter=0;" edge="1" parent="1" source="8PF1Qtc3a-aRWtdLOd60-8" target="8PF1Qtc3a-aRWtdLOd60-10">
          <mxGeometry relative="1" as="geometry" />
        </mxCell>
        <mxCell id="8PF1Qtc3a-aRWtdLOd60-24" value="PUBLISH" style="rhombus;whiteSpace=wrap;html=1;" vertex="1" parent="1">
          <mxGeometry x="525" y="80" width="80" height="80" as="geometry" />
        </mxCell>
        <mxCell id="8PF1Qtc3a-aRWtdLOd60-26" value="COMMENT" style="rounded=0;whiteSpace=wrap;html=1;" vertex="1" parent="1">
          <mxGeometry x="225" y="412" width="100" height="30" as="geometry" />
        </mxCell>
        <mxCell id="8PF1Qtc3a-aRWtdLOd60-32" value="POSTID" style="ellipse;whiteSpace=wrap;html=1;" vertex="1" parent="1">
          <mxGeometry x="235" y="492" width="110" height="50" as="geometry" />
        </mxCell>
        <mxCell id="8PF1Qtc3a-aRWtdLOd60-34" value="USERID" style="ellipse;whiteSpace=wrap;html=1;" vertex="1" parent="1">
          <mxGeometry x="365" y="482" width="110" height="50" as="geometry" />
        </mxCell>
        <mxCell id="8PF1Qtc3a-aRWtdLOd60-35" value="CONTENT" style="ellipse;whiteSpace=wrap;html=1;" vertex="1" parent="1">
          <mxGeometry x="80" y="482" width="110" height="50" as="geometry" />
        </mxCell>
        <mxCell id="8PF1Qtc3a-aRWtdLOd60-36" value="CREATED AT" style="ellipse;whiteSpace=wrap;html=1;" vertex="1" parent="1">
          <mxGeometry x="415" y="412" width="110" height="50" as="geometry" />
        </mxCell>
        <mxCell id="8PF1Qtc3a-aRWtdLOd60-37" value="COMMENTID" style="ellipse;whiteSpace=wrap;html=1;" vertex="1" parent="1">
          <mxGeometry x="35" y="412" width="110" height="50" as="geometry" />
        </mxCell>
        <mxCell id="8PF1Qtc3a-aRWtdLOd60-56" style="edgeStyle=orthogonalEdgeStyle;rounded=0;orthogonalLoop=1;jettySize=auto;html=1;entryX=0.5;entryY=0;entryDx=0;entryDy=0;" edge="1" parent="1" source="8PF1Qtc3a-aRWtdLOd60-38" target="8PF1Qtc3a-aRWtdLOd60-26">
          <mxGeometry relative="1" as="geometry" />
        </mxCell>
        <mxCell id="8PF1Qtc3a-aRWtdLOd60-57" style="edgeStyle=orthogonalEdgeStyle;rounded=0;orthogonalLoop=1;jettySize=auto;html=1;entryX=0.5;entryY=0;entryDx=0;entryDy=0;" edge="1" parent="1" source="8PF1Qtc3a-aRWtdLOd60-38" target="8PF1Qtc3a-aRWtdLOd60-44">
          <mxGeometry relative="1" as="geometry" />
        </mxCell>
        <mxCell id="8PF1Qtc3a-aRWtdLOd60-38" value="HAS" style="rhombus;whiteSpace=wrap;html=1;" vertex="1" parent="1">
          <mxGeometry x="525" y="240" width="80" height="80" as="geometry" />
        </mxCell>
        <mxCell id="8PF1Qtc3a-aRWtdLOd60-39" style="edgeStyle=orthogonalEdgeStyle;rounded=0;orthogonalLoop=1;jettySize=auto;html=1;entryX=0.956;entryY=0.345;entryDx=0;entryDy=0;entryPerimeter=0;" edge="1" parent="1" source="8PF1Qtc3a-aRWtdLOd60-26" target="8PF1Qtc3a-aRWtdLOd60-37">
          <mxGeometry relative="1" as="geometry" />
        </mxCell>
        <mxCell id="8PF1Qtc3a-aRWtdLOd60-40" style="edgeStyle=orthogonalEdgeStyle;rounded=0;orthogonalLoop=1;jettySize=auto;html=1;entryX=0;entryY=0.3;entryDx=0;entryDy=0;entryPerimeter=0;" edge="1" parent="1" source="8PF1Qtc3a-aRWtdLOd60-26" target="8PF1Qtc3a-aRWtdLOd60-36">
          <mxGeometry relative="1" as="geometry" />
        </mxCell>
        <mxCell id="8PF1Qtc3a-aRWtdLOd60-41" style="edgeStyle=orthogonalEdgeStyle;rounded=0;orthogonalLoop=1;jettySize=auto;html=1;entryX=0.365;entryY=-0.03;entryDx=0;entryDy=0;entryPerimeter=0;" edge="1" parent="1" source="8PF1Qtc3a-aRWtdLOd60-26" target="8PF1Qtc3a-aRWtdLOd60-32">
          <mxGeometry relative="1" as="geometry" />
        </mxCell>
        <mxCell id="8PF1Qtc3a-aRWtdLOd60-42" style="edgeStyle=orthogonalEdgeStyle;rounded=0;orthogonalLoop=1;jettySize=auto;html=1;entryX=0.649;entryY=-0.08;entryDx=0;entryDy=0;entryPerimeter=0;" edge="1" parent="1" source="8PF1Qtc3a-aRWtdLOd60-26" target="8PF1Qtc3a-aRWtdLOd60-35">
          <mxGeometry relative="1" as="geometry">
            <Array as="points">
              <mxPoint x="275" y="462" />
              <mxPoint x="151" y="462" />
            </Array>
          </mxGeometry>
        </mxCell>
        <mxCell id="8PF1Qtc3a-aRWtdLOd60-43" style="edgeStyle=orthogonalEdgeStyle;rounded=0;orthogonalLoop=1;jettySize=auto;html=1;entryX=0.399;entryY=-0.055;entryDx=0;entryDy=0;entryPerimeter=0;" edge="1" parent="1" source="8PF1Qtc3a-aRWtdLOd60-26" target="8PF1Qtc3a-aRWtdLOd60-34">
          <mxGeometry relative="1" as="geometry">
            <Array as="points">
              <mxPoint x="275" y="462" />
              <mxPoint x="409" y="462" />
            </Array>
          </mxGeometry>
        </mxCell>
        <mxCell id="8PF1Qtc3a-aRWtdLOd60-44" value="LIKES" style="rounded=0;whiteSpace=wrap;html=1;" vertex="1" parent="1">
          <mxGeometry x="820" y="412" width="100" height="30" as="geometry" />
        </mxCell>
        <mxCell id="8PF1Qtc3a-aRWtdLOd60-45" value="POSTID" style="ellipse;whiteSpace=wrap;html=1;" vertex="1" parent="1">
          <mxGeometry x="830" y="492" width="110" height="50" as="geometry" />
        </mxCell>
        <mxCell id="8PF1Qtc3a-aRWtdLOd60-46" value="USERID" style="ellipse;whiteSpace=wrap;html=1;" vertex="1" parent="1">
          <mxGeometry x="960" y="482" width="110" height="50" as="geometry" />
        </mxCell>
        <mxCell id="8PF1Qtc3a-aRWtdLOd60-47" value="COUNT" style="ellipse;whiteSpace=wrap;html=1;" vertex="1" parent="1">
          <mxGeometry x="675" y="482" width="110" height="50" as="geometry" />
        </mxCell>
        <mxCell id="8PF1Qtc3a-aRWtdLOd60-48" value="LIKED AT" style="ellipse;whiteSpace=wrap;html=1;" vertex="1" parent="1">
          <mxGeometry x="1010" y="412" width="110" height="50" as="geometry" />
        </mxCell>
        <mxCell id="8PF1Qtc3a-aRWtdLOd60-49" value="LIKEID" style="ellipse;whiteSpace=wrap;html=1;" vertex="1" parent="1">
          <mxGeometry x="630" y="412" width="110" height="50" as="geometry" />
        </mxCell>
        <mxCell id="8PF1Qtc3a-aRWtdLOd60-50" style="edgeStyle=orthogonalEdgeStyle;rounded=0;orthogonalLoop=1;jettySize=auto;html=1;entryX=0.956;entryY=0.345;entryDx=0;entryDy=0;entryPerimeter=0;" edge="1" parent="1" source="8PF1Qtc3a-aRWtdLOd60-44" target="8PF1Qtc3a-aRWtdLOd60-49">
          <mxGeometry relative="1" as="geometry" />
        </mxCell>
        <mxCell id="8PF1Qtc3a-aRWtdLOd60-51" style="edgeStyle=orthogonalEdgeStyle;rounded=0;orthogonalLoop=1;jettySize=auto;html=1;entryX=0;entryY=0.3;entryDx=0;entryDy=0;entryPerimeter=0;" edge="1" parent="1" source="8PF1Qtc3a-aRWtdLOd60-44" target="8PF1Qtc3a-aRWtdLOd60-48">
          <mxGeometry relative="1" as="geometry" />
        </mxCell>
        <mxCell id="8PF1Qtc3a-aRWtdLOd60-52" style="edgeStyle=orthogonalEdgeStyle;rounded=0;orthogonalLoop=1;jettySize=auto;html=1;entryX=0.365;entryY=-0.03;entryDx=0;entryDy=0;entryPerimeter=0;" edge="1" parent="1" source="8PF1Qtc3a-aRWtdLOd60-44" target="8PF1Qtc3a-aRWtdLOd60-45">
          <mxGeometry relative="1" as="geometry" />
        </mxCell>
        <mxCell id="8PF1Qtc3a-aRWtdLOd60-53" style="edgeStyle=orthogonalEdgeStyle;rounded=0;orthogonalLoop=1;jettySize=auto;html=1;entryX=0.649;entryY=-0.08;entryDx=0;entryDy=0;entryPerimeter=0;" edge="1" parent="1" source="8PF1Qtc3a-aRWtdLOd60-44" target="8PF1Qtc3a-aRWtdLOd60-47">
          <mxGeometry relative="1" as="geometry">
            <Array as="points">
              <mxPoint x="870" y="462" />
              <mxPoint x="746" y="462" />
            </Array>
          </mxGeometry>
        </mxCell>
        <mxCell id="8PF1Qtc3a-aRWtdLOd60-54" style="edgeStyle=orthogonalEdgeStyle;rounded=0;orthogonalLoop=1;jettySize=auto;html=1;entryX=0.399;entryY=-0.055;entryDx=0;entryDy=0;entryPerimeter=0;" edge="1" parent="1" target="8PF1Qtc3a-aRWtdLOd60-46">
          <mxGeometry relative="1" as="geometry">
            <Array as="points">
              <mxPoint x="945" y="442" />
              <mxPoint x="870" y="442" />
              <mxPoint x="870" y="462" />
              <mxPoint x="1004" y="462" />
            </Array>
            <mxPoint x="945" y="427" as="sourcePoint" />
          </mxGeometry>
        </mxCell>
        <mxCell id="8PF1Qtc3a-aRWtdLOd60-58" value="1" style="text;html=1;align=center;verticalAlign=middle;resizable=0;points=[];autosize=1;strokeColor=none;fillColor=none;" vertex="1" parent="1">
          <mxGeometry x="755" y="98" width="30" height="30" as="geometry" />
        </mxCell>
        <mxCell id="8PF1Qtc3a-aRWtdLOd60-59" value="M" style="text;html=1;align=center;verticalAlign=middle;resizable=0;points=[];autosize=1;strokeColor=none;fillColor=none;" vertex="1" parent="1">
          <mxGeometry x="345" y="98" width="30" height="30" as="geometry" />
        </mxCell>
        <mxCell id="8PF1Qtc3a-aRWtdLOd60-60" value="1" style="text;html=1;align=center;verticalAlign=middle;resizable=0;points=[];autosize=1;strokeColor=none;fillColor=none;" vertex="1" parent="1">
          <mxGeometry x="285" y="148" width="30" height="30" as="geometry" />
        </mxCell>
        <mxCell id="8PF1Qtc3a-aRWtdLOd60-61" value="M" style="text;html=1;align=center;verticalAlign=middle;resizable=0;points=[];autosize=1;strokeColor=none;fillColor=none;" vertex="1" parent="1">
          <mxGeometry x="275" y="382" width="30" height="30" as="geometry" />
        </mxCell>
        <mxCell id="8PF1Qtc3a-aRWtdLOd60-62" value="M" style="text;html=1;align=center;verticalAlign=middle;resizable=0;points=[];autosize=1;strokeColor=none;fillColor=none;" vertex="1" parent="1">
          <mxGeometry x="875" y="380" width="30" height="30" as="geometry" />
        </mxCell>
      </root>
    </mxGraphModel>
  </diagram>
</mxfile>
